<svg width="82" height="38" viewBox="0 0 82 38" fill="none" xmlns="http://www.w3.org/2000/svg">
<rect width="82" height="38" fill="#F5F5F5"/>
<g id="Section 1">
<path d="M-2488 -4451C-2488 -4452.1 -2487.1 -4453 -2486 -4453H11138C11139.1 -4453 11140 -4452.1 11140 -4451V2997C11140 2998.1 11139.1 2999 11138 2999H-2486C-2487.1 2999 -2488 2998.1 -2488 2997V-4451Z" fill="white"/>
<path d="M-2486 -4452H11138V-4454H-2486V-4452ZM11139 -4451V2997H11141V-4451H11139ZM11138 2998H-2486V3000H11138V2998ZM-2487 2997V-4451H-2489V2997H-2487ZM-2486 2998C-2486.55 2998 -2487 2997.55 -2487 2997H-2489C-2489 2998.66 -2487.66 3000 -2486 3000V2998ZM11139 2997C11139 2997.55 11138.6 2998 11138 2998V3000C11139.7 3000 11141 2998.66 11141 2997H11139ZM11138 -4452C11138.6 -4452 11139 -4451.55 11139 -4451H11141C11141 -4452.66 11139.7 -4454 11138 -4454V-4452ZM-2486 -4454C-2487.66 -4454 -2489 -4452.66 -2489 -4451H-2487C-2487 -4451.55 -2486.55 -4452 -2486 -4452V-4454Z" fill="black" fill-opacity="0.1"/>
<g id="Planning(summer)" clip-path="url(#clip0_2634_2866)">
<rect width="1920" height="1430" transform="translate(-133 -132)" fill="#F7F7F8"/>
<rect id="Rectangle 49" x="-29" y="-17" width="1733" height="1276" rx="20" fill="white"/>
<g id="Frame 117">
<g id="Group 46">
<g id="Group 48">
<rect id="Rectangle 26" width="82" height="38" rx="19" fill="#ECEEFA"/>
<path id="Vector" d="M26.4671 9.5085C26.636 9.66864 26.77 9.85885 26.8615 10.0683C26.9529 10.2777 27 10.5021 27 10.7288C27 10.9555 26.9529 11.18 26.8615 11.3894C26.77 11.5988 26.636 11.789 26.4671 11.9492L19.3963 18.6654L26.4671 25.3816C26.8078 25.7053 26.9992 26.1442 26.9992 26.602C26.9992 27.0597 26.8078 27.4986 26.4671 27.8223C26.1263 28.146 25.6642 28.3278 25.1823 28.3278C24.7004 28.3278 24.2383 28.146 23.8975 27.8223L15.5329 19.8771C15.364 19.7169 15.23 19.5267 15.1385 19.3173C15.0471 19.1079 15 18.8834 15 18.6567C15 18.43 15.0471 18.2056 15.1385 17.9962C15.23 17.7868 15.364 17.5965 15.5329 17.4364L23.8975 9.49119C24.59 8.83341 25.7563 8.83341 26.4671 9.5085Z" fill="#8E97E0"/>
</g>
</g>
</g>
</g>
</g>
<defs>
<clipPath id="clip0_2634_2866">
<rect width="1920" height="1430" fill="white" transform="translate(-133 -132)"/>
</clipPath>
</defs>
</svg>
