<svg width="34" height="34" viewBox="0 0 34 34" fill="none" xmlns="http://www.w3.org/2000/svg">
<g id="Trash">
<rect width="34" height="34" rx="17" fill="#BC2020"/>
<path id="Vector" fill-rule="evenodd" clip-rule="evenodd" d="M15.7143 7C15.4756 7.00013 15.2416 7.0681 15.0386 7.19629C14.8356 7.32448 14.6716 7.50783 14.5649 7.72581L13.634 9.625H9.28571C8.94472 9.625 8.6177 9.76328 8.37658 10.0094C8.13546 10.2556 8 10.5894 8 10.9375C8 11.2856 8.13546 11.6194 8.37658 11.8656C8.6177 12.1117 8.94472 12.25 9.28571 12.25V25.375C9.28571 26.0712 9.55663 26.7389 10.0389 27.2312C10.5211 27.7234 11.1752 28 11.8571 28H22.1429C22.8248 28 23.4789 27.7234 23.9611 27.2312C24.4434 26.7389 24.7143 26.0712 24.7143 25.375V12.25C25.0553 12.25 25.3823 12.1117 25.6234 11.8656C25.8645 11.6194 26 11.2856 26 10.9375C26 10.5894 25.8645 10.2556 25.6234 10.0094C25.3823 9.76328 25.0553 9.625 24.7143 9.625H20.366L19.4351 7.72581C19.3284 7.50783 19.1644 7.32448 18.9614 7.19629C18.7584 7.0681 18.5244 7.00013 18.2857 7H15.7143ZM13.1429 14.875C13.1429 14.5269 13.2783 14.1931 13.5194 13.9469C13.7606 13.7008 14.0876 13.5625 14.4286 13.5625C14.7696 13.5625 15.0966 13.7008 15.3377 13.9469C15.5788 14.1931 15.7143 14.5269 15.7143 14.875V22.75C15.7143 23.0981 15.5788 23.4319 15.3377 23.6781C15.0966 23.9242 14.7696 24.0625 14.4286 24.0625C14.0876 24.0625 13.7606 23.9242 13.5194 23.6781C13.2783 23.4319 13.1429 23.0981 13.1429 22.75V14.875ZM19.5714 13.5625C19.2304 13.5625 18.9034 13.7008 18.6623 13.9469C18.4212 14.1931 18.2857 14.5269 18.2857 14.875V22.75C18.2857 23.0981 18.4212 23.4319 18.6623 23.6781C18.9034 23.9242 19.2304 24.0625 19.5714 24.0625C19.9124 24.0625 20.2394 23.9242 20.4806 23.6781C20.7217 23.4319 20.8571 23.0981 20.8571 22.75V14.875C20.8571 14.5269 20.7217 14.1931 20.4806 13.9469C20.2394 13.7008 19.9124 13.5625 19.5714 13.5625Z" fill="white"/>
</g>
</svg>
