<svg width="13" height="16" viewBox="0 0 13 16" fill="none" xmlns="http://www.w3.org/2000/svg">
<g id="Vector">
<path d="M5.84278 13.8333H1.44444V2.16667H9.51167L11.5556 4.525V8.29167C12.0972 8.50833 12.5811 8.83333 13 9.28333V3.83333L10.1111 0.5H1.44444C1.06135 0.5 0.693954 0.675595 0.423068 0.988155C0.152182 1.30072 0 1.72464 0 2.16667V13.8333C0 14.2754 0.152182 14.6993 0.423068 15.0118C0.693954 15.3244 1.06135 15.5 1.44444 15.5H6.36278C6.11 14.9917 5.92944 14.4333 5.84278 13.8333ZM9.20833 15.5L7.22222 13L8.06 12.0333L9.20833 13.3583L11.8011 10.3667L12.6389 11.5417L9.20833 15.5Z" fill="white"/>
<path d="M9.51167 2.16667L9.1 5L11.5556 4.525L9.51167 2.16667Z" fill="white"/>
<path d="M3.03333 5H7.36667V6.5H3.03333V5Z" fill="white"/>
<path d="M4.76667 8H9.1V9.5H4.76667V8Z" fill="white"/>
</g>
</svg>
