<svg width="319" height="167" viewBox="0 0 319 167" fill="none" xmlns="http://www.w3.org/2000/svg">
<rect x="10" width="309" height="166" rx="80" fill="#6974D6"/>
<rect x="10" width="309" height="166" rx="80" fill="url(#paint0_linear_3049_36186)" fill-opacity="0.2"/>
<circle cx="159.5" cy="63.5" r="54.5" fill="#4351CC"/>
<path d="M60.1562 121C22.1826 121 4.22973 151 0 166H121.252C118.276 151 98.1297 121 60.1562 121Z" fill="#D9DCF5"/>
<path d="M251.904 122C213.93 122 195.978 151.333 191.748 166H313C310.024 151.333 289.878 122 251.904 122Z" fill="#D9DCF5"/>
<path d="M155.214 79C89.2754 79 58.1015 137 50.7568 166H261.303C256.135 137 221.153 79 155.214 79Z" fill="#D9DCF5"/>
<path d="M164.5 102C145.521 114.832 139.5 148.966 138 166.128L282.5 166.128C282.5 153.128 281.968 121.479 252 102C222 82.5 186.739 86.9627 164.5 102Z" fill="white"/>
<path d="M148.104 91.0224C146.104 94.6224 147.271 111.856 148.104 120.022L149.104 121.022L181.604 98.0224C171.271 94.1891 150.104 87.4224 148.104 91.0224Z" fill="white"/>
<path d="M272.5 92.0224C274.5 95.6224 273.333 112.856 272.5 121.022L271.5 122.022L239 99.0224C249.333 95.1891 270.5 88.4224 272.5 92.0224Z" fill="white"/>
<path d="M210.715 165.268C210.323 165.669 209.677 165.669 209.285 165.268L202.134 157.949C201.515 157.316 201.964 156.25 202.849 156.25H217.151C218.036 156.25 218.485 157.316 217.866 157.949L210.715 165.268Z" fill="#4351CC"/>
<g filter="url(#filter0_d_3049_36186)">
<path d="M157 166H121C122.333 160.667 127.9 150 139.5 150C151.1 150 156 160.667 157 166Z" fill="white"/>
</g>
<g filter="url(#filter1_d_3049_36186)">
<path d="M296 166H260C261.333 160.667 266.9 150 278.5 150C290.1 150 295 160.667 296 166Z" fill="white"/>
</g>
<circle cx="181.5" cy="145.5" r="6" fill="#7781DA" stroke="#4351CC"/>
<circle cx="181.042" cy="145.042" r="3.20833" fill="#4351CC"/>
<circle cx="178.75" cy="142.75" r="1.83333" fill="white"/>
<circle cx="238.5" cy="146.5" r="6" fill="#7781DA" stroke="#4351CC"/>
<circle cx="238.042" cy="146.042" r="3.20833" fill="#4351CC"/>
<circle cx="235.75" cy="143.75" r="1.83333" fill="white"/>
<g clip-path="url(#clip0_3049_36186)">
<path fill-rule="evenodd" clip-rule="evenodd" d="M175 32H143C140.8 32 139 33.8 139 36V64C139 66.2 140.8 68 143 68H175C177.2 68 179 66.2 179 64V36C179 33.8 177.2 32 175 32ZM155 60H145V56H155V60ZM155 52H145V48H155V52ZM155 44H145V40H155V44ZM164.64 56L159 50.32L161.82 47.5L164.64 50.34L170.98 44L173.82 46.84L164.64 56Z" fill="white"/>
</g>
<path d="M238.32 79.68V73.56C240.427 73.48 242 73.1333 243.04 72.52C244.107 71.88 244.64 70.8133 244.64 69.32V68.76C244.64 67.7467 244.333 66.9733 243.72 66.44C243.133 65.9067 242.36 65.64 241.4 65.64C240.36 65.64 239.493 65.96 238.8 66.6C238.133 67.24 237.68 68.0533 237.44 69.04L232.56 67C232.8 66.2 233.147 65.4267 233.6 64.68C234.053 63.9067 234.64 63.2267 235.36 62.64C236.107 62.0267 236.987 61.5333 238 61.16C239.04 60.7867 240.24 60.6 241.6 60.6C242.987 60.6 244.253 60.8 245.4 61.2C246.547 61.6 247.533 62.16 248.36 62.88C249.187 63.6 249.813 64.4667 250.24 65.48C250.693 66.4933 250.92 67.6133 250.92 68.84C250.92 69.96 250.733 70.9733 250.36 71.88C249.987 72.7867 249.48 73.5867 248.84 74.28C248.2 74.9467 247.453 75.4933 246.6 75.92C245.747 76.3467 244.853 76.64 243.92 76.8V79.68H238.32ZM241.2 89.48C239.92 89.48 239 89.1867 238.44 88.6C237.907 88.0133 237.64 87.2933 237.64 86.44V85.48C237.64 84.6267 237.907 83.9067 238.44 83.32C239 82.7333 239.92 82.44 241.2 82.44C242.48 82.44 243.387 82.7333 243.92 83.32C244.48 83.9067 244.76 84.6267 244.76 85.48V86.44C244.76 87.2933 244.48 88.0133 243.92 88.6C243.387 89.1867 242.48 89.48 241.2 89.48Z" fill="#F7CA3C"/>
<defs>
<filter id="filter0_d_3049_36186" x="121" y="149" width="38" height="17" filterUnits="userSpaceOnUse" color-interpolation-filters="sRGB">
<feFlood flood-opacity="0" result="BackgroundImageFix"/>
<feColorMatrix in="SourceAlpha" type="matrix" values="0 0 0 0 0 0 0 0 0 0 0 0 0 0 0 0 0 0 127 0" result="hardAlpha"/>
<feOffset dx="2" dy="-1"/>
<feComposite in2="hardAlpha" operator="out"/>
<feColorMatrix type="matrix" values="0 0 0 0 0.85098 0 0 0 0 0.862745 0 0 0 0 0.960784 0 0 0 1 0"/>
<feBlend mode="normal" in2="BackgroundImageFix" result="effect1_dropShadow_3049_36186"/>
<feBlend mode="normal" in="SourceGraphic" in2="effect1_dropShadow_3049_36186" result="shape"/>
</filter>
<filter id="filter1_d_3049_36186" x="258" y="149" width="38" height="17" filterUnits="userSpaceOnUse" color-interpolation-filters="sRGB">
<feFlood flood-opacity="0" result="BackgroundImageFix"/>
<feColorMatrix in="SourceAlpha" type="matrix" values="0 0 0 0 0 0 0 0 0 0 0 0 0 0 0 0 0 0 127 0" result="hardAlpha"/>
<feOffset dx="-2" dy="-1"/>
<feComposite in2="hardAlpha" operator="out"/>
<feColorMatrix type="matrix" values="0 0 0 0 0.85098 0 0 0 0 0.862745 0 0 0 0 0.960784 0 0 0 1 0"/>
<feBlend mode="normal" in2="BackgroundImageFix" result="effect1_dropShadow_3049_36186"/>
<feBlend mode="normal" in="SourceGraphic" in2="effect1_dropShadow_3049_36186" result="shape"/>
</filter>
<linearGradient id="paint0_linear_3049_36186" x1="164.335" y1="-8.31878e-06" x2="131.005" y2="162.547" gradientUnits="userSpaceOnUse">
<stop stop-color="white" stop-opacity="0"/>
<stop offset="1" stop-color="white"/>
</linearGradient>
<clipPath id="clip0_3049_36186">
<rect width="48" height="48" fill="white" transform="translate(135 26)"/>
</clipPath>
</defs>
</svg>
