<svg width="48" height="48" viewBox="0 0 48 48" fill="none" xmlns="http://www.w3.org/2000/svg">
<rect x="0.5" y="0.5" width="47" height="47" rx="23.5" fill="#F9D35D"/>
<rect x="0.5" y="0.5" width="47" height="47" rx="23.5" stroke="#4351CC"/>
<g filter="url(#filter0_d_1354_3499)">
<path d="M25.5092 10C25.9208 10 26.289 10.2562 26.4275 10.6398L27.4159 13.3796C27.7701 13.4678 28.0739 13.556 28.3315 13.6484C28.6129 13.7492 28.9755 13.9018 29.4234 14.1104L31.725 12.8924C31.9128 12.7928 32.1279 12.7569 32.3379 12.79C32.5479 12.823 32.7415 12.9233 32.8897 13.0758L34.9141 15.1687C35.1828 15.4473 35.2584 15.8547 35.1072 16.2103L34.0279 18.7401C34.2071 19.0691 34.3499 19.3505 34.4591 19.5857C34.5767 19.8419 34.7223 20.1947 34.8959 20.6497L37.4116 21.7277C37.7896 21.8887 38.0233 22.2667 37.9982 22.6712L37.8134 25.5762C37.8007 25.7649 37.733 25.9458 37.6185 26.0964C37.504 26.2469 37.3479 26.3606 37.1694 26.4232L34.7867 27.2702C34.7181 27.5992 34.6467 27.8806 34.5711 28.1186C34.4491 28.4861 34.3099 28.8477 34.1539 29.2022L35.3508 31.8481C35.4353 32.034 35.4581 32.2421 35.4157 32.4419C35.3734 32.6417 35.2683 32.8226 35.1156 32.9583L32.8393 34.9911C32.6894 35.1244 32.5023 35.2087 32.3032 35.2327C32.104 35.2568 31.9023 35.2193 31.725 35.1255L29.3786 33.8823C29.0116 34.0767 28.6329 34.2483 28.2447 34.3961L27.2199 34.7797L26.31 37.2997C26.2425 37.4842 26.1209 37.6441 25.961 37.7582C25.8011 37.8724 25.6104 37.9356 25.414 37.9395L22.7541 37.9997C22.5524 38.005 22.3541 37.9476 22.1864 37.8356C22.0187 37.7235 21.8898 37.5622 21.8175 37.3739L20.7451 34.5361C20.3793 34.4111 20.017 34.2757 19.6588 34.1301C19.3658 34.0033 19.0772 33.8665 18.7936 33.7199L16.1337 34.8567C15.9584 34.9315 15.7652 34.9537 15.5776 34.9206C15.3899 34.8876 15.2159 34.8007 15.0767 34.6705L13.1084 32.8239C12.9619 32.687 12.8621 32.5075 12.8231 32.3108C12.7842 32.1141 12.8081 31.9101 12.8914 31.7277L14.0352 29.2358C13.8831 28.9406 13.742 28.6399 13.6124 28.3342C13.4611 27.96 13.321 27.5814 13.1924 27.1988L10.6865 26.4358C10.4828 26.3742 10.3051 26.2471 10.1811 26.0742C10.0571 25.9013 9.99357 25.6923 10.0005 25.4796L10.0985 22.7902C10.1055 22.6148 10.1603 22.4446 10.257 22.298C10.3537 22.1514 10.4887 22.0341 10.6473 21.9587L13.2764 20.6959C13.3982 20.2493 13.5046 19.9021 13.5984 19.6487C13.7305 19.3102 13.8771 18.9777 14.038 18.6519L12.8984 16.2439C12.8119 16.0611 12.7857 15.8555 12.8234 15.6568C12.8611 15.458 12.9609 15.2764 13.1084 15.1379L15.0739 13.2816C15.2117 13.1516 15.3841 13.0642 15.5704 13.03C15.7567 12.9957 15.9489 13.016 16.1239 13.0884L18.781 14.186C19.075 13.99 19.341 13.8318 19.5818 13.7044C19.8688 13.5518 20.2524 13.3922 20.7353 13.22L21.6593 10.6426C21.7276 10.454 21.8525 10.291 22.0168 10.176C22.1812 10.061 22.3771 9.99954 22.5777 10H25.5092ZM24.0336 19.8265C21.6999 19.8265 19.8086 21.6955 19.8086 24.0026C19.8086 26.3098 21.6999 28.1802 24.0336 28.1802C26.3659 28.1802 28.2573 26.3098 28.2573 24.0026C28.2573 21.6955 26.3673 19.8265 24.0336 19.8265Z" fill="white"/>
</g>
<defs>
<filter id="filter0_d_1354_3499" x="6" y="7" width="36" height="36" filterUnits="userSpaceOnUse" color-interpolation-filters="sRGB">
<feFlood flood-opacity="0" result="BackgroundImageFix"/>
<feColorMatrix in="SourceAlpha" type="matrix" values="0 0 0 0 0 0 0 0 0 0 0 0 0 0 0 0 0 0 127 0" result="hardAlpha"/>
<feOffset dy="1"/>
<feGaussianBlur stdDeviation="2"/>
<feComposite in2="hardAlpha" operator="out"/>
<feColorMatrix type="matrix" values="0 0 0 0 0 0 0 0 0 0 0 0 0 0 0 0 0 0 0.15 0"/>
<feBlend mode="normal" in2="BackgroundImageFix" result="effect1_dropShadow_1354_3499"/>
<feBlend mode="normal" in="SourceGraphic" in2="effect1_dropShadow_1354_3499" result="shape"/>
</filter>
</defs>
</svg>
